:SAMPLES-PER-SECOND 30
:FRAME-RANGE 1-2091
:FULLY-SPECIFIED
:DEGREES
393
root  13.2579 38.6893 82.7846 179.678 -57.6239 -177.417
RightUpLeg  -10.945 5.22214 7.99221
RightLeg  17.671 1.31017 0.0826803
RightFoot  -12.2832 -0.116197 -4.03942
RightToes  5.38607e-012 1.2921e-014 -6.02303e-014
Spine  -1.82474 -1.88362 0.810646
Spine1  5.2119 -1.6771 -1.59008
HEad  15.6038 2.35788 5.79216
LeftShoulder1  1.32504 -2.07957 -18.2723
LeftArm  -1.46354 -8.61945 -34.9018
LeftForeArm  4.03452 -39.2046 -8.8867
LeftHand  -0.173354 2.24756 6.09703
RightShoulder  1.54938 1.43875 26.6273
RightArm  -22.881 -0.0244745 49.5733
RightForeArm  63.2036 -1.83605 5.44361
RightHand  -0.013285 -5.39892 -15.6691
LeftUpLeg  -21.364 -11.4404 8.79716
LeftLeg  11.5973 -22.5847 -1.23349
LeftFoot  -5.77303 0.506618 -9.69067
LeftToes  -7.20997e-011 3.75522e-011 -2.80735e-011
394
root  12.6056 38.6668 82.5899 179.543 -55.4887 -176.901
RightUpLeg  -10.2 6.34414 8.15028
RightLeg  17.9698 2.48973 0.471795
RightFoot  -13.1127 -0.155923 -4.35404
RightToes  5.38607e-012 1.2921e-014 -6.02303e-014
Spine  -2.20205 -1.72815 0.891556
Spine1  5.90714 -1.4965 -1.65275
HEad  16.2842 1.42002 6.4885
LeftShoulder1  1.33108 -2.11095 -18.239
LeftArm  2.68961 -5.98377 -36.517
LeftForeArm  6.97586 -36.7454 -7.95652
LeftHand  -0.211564 2.88475 9.37872
RightShoulder  1.56987 1.45352 26.9715
RightArm  -22.7531 0.0223576 49.6032
RightForeArm  63.174 -1.91679 5.50283
RightHand  0.0168877 -5.62395 -15.7746
LeftUpLeg  -21.2329 -9.72427 8.71299
LeftLeg  11.1505 -25.5546 -1.4748
LeftFoot  -7.18155 0.449596 -11.1706
LeftToes  -7.20997e-011 3.75522e-011 -2.80735e-011
395
root  11.9157 38.6416 82.4012 179.258 -53.2004 -176.371
RightUpLeg  -9.1157 6.93753 8.27223
RightLeg  18.0085 3.96386 0.9927
RightFoot  -14.0824 -0.191297 -4.01708
RightToes  5.38607e-012 1.2921e-014 -6.02303e-014
Spine  -2.34439 -1.67322 0.820417
Spine1  6.16574 -1.46297 -1.46879
HEad  17.7174 0.651701 6.8766
LeftShoulder1  1.32203 -1.98467 -18.6873
LeftArm  6.56447 -3.51953 -38.183
LeftForeArm  7.35851 -33.2078 -6.94974
LeftHand  -0.20974 3.34335 11.3432
RightShoulder  1.60545 1.53392 27.17
RightArm  -22.3035 -0.0823595 49.3247
RightForeArm  63.6229 -2.49649 5.66473
RightHand  0.019496 -5.64395 -15.755
LeftUpLeg  -20.7852 -11.4088 9.50231
LeftLeg  12.084 -23.5255 -1.82674
LeftFoot  -5.90126 0.639883 -12.6853
LeftToes  -7.20997e-011 3.75522e-011 -2.80735e-011
396
root  11.2255 38.6077 82.1843 179.195 -50.7572 -176.133
RightUpLeg  -8.05031 9.15493 8.17717
RightLeg  18.1788 4.14676 1.17069
RightFoot  -15.4981 -0.188568 -2.30874
RightToes  5.38607e-012 1.2921e-014 -6.02303e-014
Spine  -2.78029 -1.74682 0.112581
Spine1  6.69034 -1.53804 -1.27772
HEad  19.0423 0.130981 7.72989
LeftShoulder1  1.30123 -1.86202 -18.8923
LeftArm  11.0185 -2.05408 -39.9879
LeftForeArm  9.2113 -28.5454 -5.67958
LeftHand  -0.151452 4.16206 13.252
RightShoulder  1.59962 1.40289 27.9951
RightArm  -21.6006 0.20675 48.5444
RightForeArm  64.4939 -3.53743 5.86983
RightHand  0.0728714 -6.04042 -15.8214
LeftUpLeg  -20.3928 -14.3619 10.4425
LeftLeg  13.5604 -18.6193 -1.81841
LeftFoot  -5.06542 0.710003 -12.361
LeftToes  -7.20997e-011 3.75522e-011 -2.80735e-011
397
root  10.5924 38.5132 81.9346 -179.673 -48.4764 -177.393
RightUpLeg  -7.97609 12.0672 7.08771
RightLeg  20.1053 3.84042 1.34583
RightFoot  -17.7297 -0.147258 -0.489671
RightToes  5.38607e-012 1.2921e-014 -6.02303e-014
Spine  -3.38956 -1.9451 -1.89218
Spine1  7.48516 -1.64444 -1.34012
HEad  20.0264 -0.708602 9.00201
LeftShoulder1  1.37437 -2.17148 -18.7995
LeftArm  16.3094 -2.04911 -41.7262
LeftForeArm  7.46429 -23.2123 -4.64545
LeftHand  -0.0473903 5.11608 14.6196
RightShoulder  1.618 1.35691 28.7475
RightArm  -22.1422 0.187393 48.3653
RightForeArm  65.7668 -4.75495 5.41394
RightHand  0.110128 -6.29584 -16.1516
LeftUpLeg  -20.54 -17.1075 10.4568
LeftLeg  15.9879 -13.5629 -2.42859
LeftFoot  -6.28337 0.52391 -10.9857
LeftToes  -7.20997e-011 3.75522e-011 -2.80735e-011
398
root  10.0014 38.3703 81.69 -178.116 -45.7015 -179.404
RightUpLeg  -8.78162 13.147 5.27277
RightLeg  23.6468 5.65442 2.49272
RightFoot  -19.5613 -0.0962705 0.502562
RightToes  5.38607e-012 1.2921e-014 -6.02303e-014
Spine  -3.79965 -2.02113 -3.90986
Spine1  8.02759 -1.45026 -2.22077
HEad  21.2315 -1.51898 9.76938
LeftShoulder1  1.49505 -2.64184 -18.8498
LeftArm  15.3759 -3.50391 -42.28
LeftForeArm  10.121 -18.5104 -6.88034
LeftHand  -0.122492 4.43261 13.3948
RightShoulder  1.61609 1.32173 28.9754
RightArm  -22.625 -0.671244 48.8277
RightForeArm  66.2811 -5.12168 5.17117
RightHand  0.192121 -6.86966 -16.381
LeftUpLeg  -20.1737 -16.4893 8.8432
LeftLeg  18.2677 -11.4017 -2.77938
LeftFoot  -7.71201 0.362172 -9.95709
LeftToes  -7.20997e-011 3.75522e-011 -2.80735e-011
399
root  9.46681 38.1867 81.4542 -176.675 -42.0923 178.416
RightUpLeg  -10.6496 13.8123 2.7507
RightLeg  29.0898 8.68321 4.97921
RightFoot  -21.2991 0.12072 3.04175
RightToes  5.38607e-012 1.2921e-014 -6.02303e-014
Spine  -3.95257 -2.03744 -5.98869
Spine1  8.19006 -1.15334 -3.49976
HEad  22.3469 -1.53335 10.0128
LeftShoulder1  1.54564 -2.79481 -19.0652
LeftArm  12.9419 -6.21321 -42.4893
LeftForeArm  14.2943 -14.8017 -9.39917
LeftHand  -0.061091 4.98626 13.7015
RightShoulder  1.62301 1.30273 29.2776
RightArm  -23.0799 -1.14407 49.2968
RightForeArm  67.4546 -5.63012 4.88791
RightHand  0.164998 -6.67274 -16.406
LeftUpLeg  -19.3903 -13.4175 6.36986
LeftLeg  20.5454 -10.9067 -2.97697
LeftFoot  -9.8356 0.18515 -9.59772
LeftToes  -7.20997e-011 3.75522e-011 -2.80735e-011
400
root  8.95295 38.0633 81.2104 -175.852 -38.0699 176.651
RightUpLeg  -13.432 13.9386 0.134502
RightLeg  35.9547 11.1191 8.31773
RightFoot  -21.7427 0.630984 8.54169
RightToes  5.38607e-012 1.2921e-014 -6.02303e-014
Spine  -4.05271 -2.13835 -7.95981
Spine1  8.29322 -1.07811 -4.3666
HEad  23.1737 -0.691472 9.58156
LeftShoulder1  1.62131 -2.99455 -19.4943
LeftArm  10.7061 -9.0443 -42.7505
LeftForeArm  14.5241 -12.199 -10.9792
LeftHand  -0.0104097 5.42055 14.2139
RightShoulder  1.66118 1.39139 29.4332
RightArm  -22.0303 -1.41301 49.5304
RightForeArm  67.6934 -5.72575 5.52502
RightHand  0.190667 -6.86076 -16.3658
LeftUpLeg  -18.0344 -10.1739 3.96999
LeftLeg  22.0041 -10.2546 -2.71549
LeftFoot  -11.55 0.0529152 -8.85795
LeftToes  -7.20997e-011 3.75522e-011 -2.80735e-011
401
root  8.43599 37.9997 80.9265 -175.987 -33.8246 175.911
RightUpLeg  -16.1851 13.27 -1.51989
RightLeg  42.2529 11.8593 11.0631
RightFoot  -20.7639 0.938499 13.0527
RightToes  5.38607e-012 1.2921e-014 -6.02303e-014
Spine  -4.23538 -2.26279 -9.0587
Spine1  8.48662 -1.15448 -4.94827
HEad  24.1138 0.669209 8.53037
LeftShoulder1  1.72538 -3.35007 -19.699
LeftArm  5.99495 -11.3581 -43.4993
LeftForeArm  15.5667 -10.3168 -11.4826
LeftHand  0.0304318 5.726 15.2615
RightShoulder  1.68219 1.47577 29.2466
RightArm  -21.2725 -1.14824 49.8103
RightForeArm  67.8728 -5.79545 5.993
RightHand  0.167997 -6.73705 -15.9468
LeftUpLeg  -16.2907 -7.50064 2.38952
LeftLeg  23.0182 -8.895 -2.03362
LeftFoot  -13.0624 -0.042114 -7.99697
LeftToes  -7.20997e-011 3.75522e-011 -2.80735e-011
402
root  7.91054 38.0542 80.5831 -176.648 -29.5367 175.909
RightUpLeg  -18.491 12.2028 -2.06997
RightLeg  46.1436 9.82243 10.4936
RightFoot  -19.9957 0.748182 11.65
RightToes  5.38607e-012 1.2921e-014 -6.02303e-014
Spine  -4.39273 -2.42085 -9.40531
Spine1  8.35966 -1.44523 -4.79417
HEad  25.0464 2.43638 6.983
LeftShoulder1  1.78115 -3.53455 -19.8245
LeftArm  4.53301 -13.1123 -44.4048
LeftForeArm  12.4027 -11.3878 -10.7687
LeftHand  0.019417 5.62352 15.9585
RightShoulder  1.67764 1.47982 29.1183
RightArm  -21.1875 -1.33328 50.0384
RightForeArm  68.0335 -5.8027 6.07494
RightHand  0.223979 -7.13931 -16.0365
LeftUpLeg  -13.9024 -4.16461 1.54683
LeftLeg  22.9207 -8.12526 -1.47787
LeftFoot  -14.2491 -0.10056 -7.31445
LeftToes  -7.20997e-011 3.75522e-011 -2.80735e-011
403
root  7.40875 38.1472 80.1819 -177.294 -25.6888 176.277
RightUpLeg  -20.5768 10.6489 -2.17088
RightLeg  47.5077 6.82089 7.61097
RightFoot  -19.0144 0.569029 10.3879
RightToes  5.38607e-012 1.2921e-014 -6.02303e-014
Spine  -4.62852 -2.72444 -9.40199
Spine1  8.14303 -1.93835 -4.21782
HEad  25.6693 4.21537 5.55058
LeftShoulder1  1.77411 -3.53714 -19.7034
LeftArm  3.68051 -15.439 -45.3139
LeftForeArm  8.72057 -13.3976 -9.55609
LeftHand  -0.0600813 5.03961 16.2277
RightShoulder  1.62737 1.35041 29.0046
RightArm  -21.6413 -1.72717 50.1136
RightForeArm  67.9004 -5.77373 5.86637
RightHand  0.21657 -7.06973 -16.1664
LeftUpLeg  -11.5011 -0.254856 1.42399
LeftLeg  22.2368 -8.15919 -1.48928
LeftFoot  -15.2528 -0.130872 -6.50164
LeftToes  -7.20997e-011 3.75522e-011 -2.80735e-011
404
root  6.93461 38.247 79.7389 -177.681 -22.4753 176.642
RightUpLeg  -22.5363 8.40035 -2.28967
RightLeg  46.8456 4.51551 4.83902
RightFoot  -18.0394 0.403922 8.98074
RightToes  5.38607e-012 1.2921e-014 -6.02303e-014
Spine  -4.63164 -3.06074 -9.35412
Spine1  7.5184 -2.4959 -3.30439
HEad  25.9267 5.4101 4.51777
LeftShoulder1  1.81838 -3.75864 -19.5039
LeftArm  1.95243 -18.3053 -45.871
LeftForeArm  5.32394 -15.7618 -7.99781
LeftHand  -0.18521 4.12191 16.129
RightShoulder  1.5338 1.10571 28.8061
RightArm  -22.3186 -2.5816 49.8985
RightForeArm  66.9562 -5.75867 5.55633
RightHand  0.191056 -6.89361 -16.0756
LeftUpLeg  -9.22408 2.85293 1.6111
LeftLeg  21.1257 -8.06543 -1.65109
LeftFoot  -15.9732 -0.147283 -6.00283
LeftToes  -7.20997e-011 3.75522e-011 -2.80735e-011
